<svg xmlns="http://www.w3.org/2000/svg" width="240.456" height="24.401" viewBox="0 0 240.456 24.401">
  <g id="Group_5" data-name="Group 5" transform="translate(-2108 1367.116)">
    <path id="Path_4" data-name="Path 4" d="M10.152,0V-16.848h7.641V-18.9H0v2.052H7.641V0Zm17.2-19.116c-6.912,0-9.423,2.43-9.423,9.666S20.439.216,27.351.216c6.966,0,9.423-2.43,9.423-9.666S34.317-19.116,27.351-19.116Zm-6.8,9.666c0-5.7,1.431-7.614,6.8-7.614s6.8,1.917,6.8,7.614c0,5.724-1.431,7.614-6.8,7.614S20.547-3.726,20.547-9.45ZM47.466-1.836c-3.78,0-5.211-1.269-5.211-4.779V-18.9H39.744V-6.372c0,5,3,6.588,7.722,6.588s7.722-1.593,7.722-6.588V-18.9H52.677V-6.615C52.677-3.105,51.246-1.836,47.466-1.836ZM58.7,0h2.511V-15.552c0-1.026.486-1.3,1.35-1.3h6.723c2.538,0,2.916,1.323,2.916,3.672,0,2.3-.216,3.969-2.511,3.969H65.07c-.729,0-1.134.378-1.134.945v.432a1.779,1.779,0,0,0,.7,1.188L71.874,0h3.348L67.473-7.02v-.135h3.051c3.267,0,4.293-2.4,4.293-6.021,0-3.51-1.107-5.724-4.59-5.724H61.479c-1.782,0-2.781.837-2.781,2.862Z" transform="translate(2108 -1348)" fill="#79adf6"/>
    <path id="Path_5" data-name="Path 5" d="M12.031,0,10.076-5H3.781L1.848,0H0L6.209-15.77H7.745L13.922,0ZM9.507-6.639,7.681-11.5q-.354-.924-.73-2.267A20.354,20.354,0,0,1,6.273-11.5L4.426-6.639ZM30.819,0V-7.659a3.179,3.179,0,0,0-.6-2.111,2.327,2.327,0,0,0-1.869-.7,3.018,3.018,0,0,0-2.46.956,4.544,4.544,0,0,0-.795,2.943V0H23.311V-7.659a3.179,3.179,0,0,0-.6-2.111,2.341,2.341,0,0,0-1.88-.7,2.912,2.912,0,0,0-2.455,1A5.436,5.436,0,0,0,17.6-6.177V0H15.813V-11.773h1.45l.29,1.611h.086A3.5,3.5,0,0,1,19.062-11.5a4.348,4.348,0,0,1,2.057-.483q2.761,0,3.609,2h.086a3.754,3.754,0,0,1,1.525-1.461,4.733,4.733,0,0,1,2.277-.537,3.987,3.987,0,0,1,2.992,1.026A4.589,4.589,0,0,1,32.6-7.681V0ZM41.25.215a5.409,5.409,0,0,1-4.12-1.59A6.155,6.155,0,0,1,35.621-5.79a6.826,6.826,0,0,1,1.4-4.522,4.657,4.657,0,0,1,3.765-1.676,4.44,4.44,0,0,1,3.5,1.456,5.579,5.579,0,0,1,1.289,3.84v1.128h-8.11a4.667,4.667,0,0,0,1.047,3.147,3.622,3.622,0,0,0,2.8,1.074,9.483,9.483,0,0,0,3.76-.795v1.59a9.437,9.437,0,0,1-1.789.585A10.051,10.051,0,0,1,41.25.215ZM40.767-10.5a2.912,2.912,0,0,0-2.261.924,4.258,4.258,0,0,0-.994,2.557h6.155A3.921,3.921,0,0,0,42.915-9.6,2.647,2.647,0,0,0,40.767-10.5ZM56.676,0V-7.616a3.073,3.073,0,0,0-.655-2.148,2.669,2.669,0,0,0-2.052-.709,3.384,3.384,0,0,0-2.707,1,5.044,5.044,0,0,0-.859,3.3V0H48.619V-11.773h1.45l.29,1.611h.086a3.641,3.641,0,0,1,1.536-1.348,4.991,4.991,0,0,1,2.2-.478,4.472,4.472,0,0,1,3.2,1.026,4.366,4.366,0,0,1,1.074,3.282V0Zm7.229,0H62.122V-11.773h1.783ZM61.972-14.964a1.184,1.184,0,0,1,.3-.9,1.051,1.051,0,0,1,.752-.285,1.051,1.051,0,0,1,.741.29,1.163,1.163,0,0,1,.312.892,1.181,1.181,0,0,1-.312.9,1.04,1.04,0,0,1-.741.3,1.03,1.03,0,0,1-.752-.3A1.206,1.206,0,0,1,61.972-14.964ZM71.489-1.257a5.825,5.825,0,0,0,.913-.07,5.911,5.911,0,0,0,.7-.145V-.107a3.26,3.26,0,0,1-.854.231,6.413,6.413,0,0,1-1.015.091q-3.416,0-3.416-3.6v-7H66.129v-.859l1.687-.741.752-2.514H69.6v2.729h3.416v1.386H69.6v6.929a2.384,2.384,0,0,0,.5,1.633A1.757,1.757,0,0,0,71.489-1.257Zm2.095-10.517H75.5L78.074-5.06A25.537,25.537,0,0,1,79.127-1.74h.086q.14-.548.585-1.875t2.917-8.159h1.912L79.567,1.633a6.688,6.688,0,0,1-1.756,2.82,3.735,3.735,0,0,1-2.465.833A7.174,7.174,0,0,1,73.734,5.1V3.674a6.216,6.216,0,0,0,1.321.129A2.723,2.723,0,0,0,77.677,1.74L78.332.064Zm27.8,7.595a3.852,3.852,0,0,1-1.5,3.233A6.521,6.521,0,0,1,95.8.215,10.224,10.224,0,0,1,91.5-.5V-2.267a11.313,11.313,0,0,0,2.105.645,11.078,11.078,0,0,0,2.256.236,4.552,4.552,0,0,0,2.75-.693,2.274,2.274,0,0,0,.924-1.928,2.475,2.475,0,0,0-.328-1.337,3.044,3.044,0,0,0-1.1-.961,15.329,15.329,0,0,0-2.336-1,7.458,7.458,0,0,1-3.131-1.858,4.1,4.1,0,0,1-.94-2.8,3.487,3.487,0,0,1,1.364-2.89,5.669,5.669,0,0,1,3.609-1.074,10.637,10.637,0,0,1,4.308.859l-.569,1.59a9.735,9.735,0,0,0-3.781-.816,3.659,3.659,0,0,0-2.267.623,2.053,2.053,0,0,0-.816,1.729,2.651,2.651,0,0,0,.3,1.337,2.832,2.832,0,0,0,1.015.956,12.613,12.613,0,0,0,2.186.961,8.655,8.655,0,0,1,3.4,1.891A3.718,3.718,0,0,1,101.385-4.179ZM109.807.215a5.1,5.1,0,0,1-2.1-.424,3.949,3.949,0,0,1-1.6-1.305h-.129A15.792,15.792,0,0,1,106.111.44V5.285h-1.783V-11.773h1.45l.247,1.611h.086a4.141,4.141,0,0,1,1.6-1.4,4.866,4.866,0,0,1,2.095-.43,4.351,4.351,0,0,1,3.615,1.6,7.047,7.047,0,0,1,1.273,4.49A7.006,7.006,0,0,1,113.4-1.391,4.359,4.359,0,0,1,109.807.215Zm-.258-10.688a3.16,3.16,0,0,0-2.61,1,5.141,5.141,0,0,0-.827,3.18v.4a5.892,5.892,0,0,0,.827,3.55,3.146,3.146,0,0,0,2.653,1.069,2.759,2.759,0,0,0,2.39-1.235,5.858,5.858,0,0,0,.865-3.405,5.638,5.638,0,0,0-.865-3.378A2.844,2.844,0,0,0,109.549-10.474ZM125.05,0,124.7-1.676h-.086a4.954,4.954,0,0,1-1.756,1.5,5.353,5.353,0,0,1-2.186.392,3.932,3.932,0,0,1-2.745-.9,3.291,3.291,0,0,1-.994-2.567q0-3.566,5.7-3.738l2-.064v-.73a2.985,2.985,0,0,0-.6-2.046,2.452,2.452,0,0,0-1.907-.661,7.769,7.769,0,0,0-3.33.9l-.548-1.364a8.379,8.379,0,0,1,1.907-.741,8.258,8.258,0,0,1,2.079-.269,4.485,4.485,0,0,1,3.121.935,3.9,3.9,0,0,1,1.015,3V0Zm-4.028-1.257a3.619,3.619,0,0,0,2.616-.913,3.378,3.378,0,0,0,.951-2.557V-5.79l-1.783.075a6.486,6.486,0,0,0-3.067.661,1.992,1.992,0,0,0-.94,1.821,1.837,1.837,0,0,0,.585,1.472A2.43,2.43,0,0,0,121.021-1.257ZM134.75.215a5.025,5.025,0,0,1-3.958-1.574,6.472,6.472,0,0,1-1.4-4.453,6.673,6.673,0,0,1,1.423-4.565,5.125,5.125,0,0,1,4.055-1.611,8.047,8.047,0,0,1,1.7.183,5.591,5.591,0,0,1,1.332.43l-.548,1.515a8.384,8.384,0,0,0-1.289-.392,5.756,5.756,0,0,0-1.235-.156q-3.588,0-3.588,4.576a5.449,5.449,0,0,0,.875,3.33,3.046,3.046,0,0,0,2.594,1.16,7.932,7.932,0,0,0,3.019-.634V-.4A6.433,6.433,0,0,1,134.75.215Zm10.742,0a5.409,5.409,0,0,1-4.12-1.59,6.155,6.155,0,0,1-1.509-4.415,6.826,6.826,0,0,1,1.4-4.522,4.657,4.657,0,0,1,3.765-1.676,4.44,4.44,0,0,1,3.5,1.456,5.579,5.579,0,0,1,1.289,3.84v1.128h-8.11a4.667,4.667,0,0,0,1.047,3.147,3.622,3.622,0,0,0,2.8,1.074,9.483,9.483,0,0,0,3.76-.795v1.59a9.436,9.436,0,0,1-1.789.585A10.051,10.051,0,0,1,145.492.215Zm-.483-10.71a2.912,2.912,0,0,0-2.261.924,4.258,4.258,0,0,0-.994,2.557h6.155a3.921,3.921,0,0,0-.752-2.583A2.647,2.647,0,0,0,145.009-10.5Zm15.447,7.283a2.949,2.949,0,0,1-1.225,2.535,5.756,5.756,0,0,1-3.437.892,7.475,7.475,0,0,1-3.652-.741V-2.181a8.832,8.832,0,0,0,1.821.677,7.6,7.6,0,0,0,1.875.247,4.251,4.251,0,0,0,2.148-.446,1.474,1.474,0,0,0,.752-1.359,1.475,1.475,0,0,0-.6-1.176,9.378,9.378,0,0,0-2.326-1.155,12.611,12.611,0,0,1-2.336-1.069A3.192,3.192,0,0,1,152.448-7.5a2.7,2.7,0,0,1-.338-1.386,2.642,2.642,0,0,1,1.171-2.272,5.456,5.456,0,0,1,3.212-.833,9.4,9.4,0,0,1,3.717.773l-.634,1.45a8.532,8.532,0,0,0-3.212-.73,3.7,3.7,0,0,0-1.912.4,1.229,1.229,0,0,0-.645,1.1,1.334,1.334,0,0,0,.242.806,2.385,2.385,0,0,0,.779.634,17.405,17.405,0,0,0,2.063.87,7.705,7.705,0,0,1,2.831,1.536A2.709,2.709,0,0,1,160.456-3.212Z" transform="translate(2188 -1348)" fill="#fff"/>
  </g>
</svg>
