<svg width="205" height="40" viewBox="0 0 205 40" fill="none" xmlns="http://www.w3.org/2000/svg">
<path d="M138.735 18.1747L136.977 13.6435H131.254L129.506 18.1747H127.827L133.413 3.83878H134.907L140.454 18.1747H138.735ZM136.479 12.1689L134.809 7.6669C134.77 7.54972 134.705 7.35766 134.614 7.09073C134.529 6.82381 134.441 6.54711 134.35 6.26065C134.259 5.9742 134.184 5.74308 134.126 5.5673C134.06 5.83422 133.989 6.10115 133.911 6.36808C133.839 6.62849 133.767 6.87263 133.696 7.1005C133.624 7.32185 133.562 7.51065 133.51 7.6669L131.811 12.1689H136.479Z" fill="white"/>
<path d="M153.813 7.27628C154.991 7.27628 155.88 7.58552 156.479 8.20401C157.078 8.81599 157.377 9.80232 157.377 11.163V18.1747H155.776V11.2411C155.776 10.3752 155.587 9.72745 155.21 9.29776C154.838 8.86157 154.285 8.64347 153.549 8.64347C152.514 8.64347 151.762 8.94295 151.294 9.5419C150.825 10.1409 150.59 11.023 150.59 12.1884V18.1747H148.979V11.2411C148.979 10.6617 148.894 10.1799 148.725 9.79581C148.562 9.4117 148.315 9.12524 147.983 8.93644C147.657 8.74112 147.244 8.64347 146.743 8.64347C146.033 8.64347 145.463 8.78995 145.034 9.08292C144.604 9.37589 144.292 9.81209 144.096 10.3915C143.907 10.9644 143.813 11.6708 143.813 12.5107V18.1747H142.192V7.47159H143.501L143.745 8.98526H143.833C144.047 8.61417 144.318 8.30167 144.643 8.04776C144.969 7.79386 145.333 7.6018 145.737 7.47159C146.141 7.34138 146.57 7.27628 147.026 7.27628C147.84 7.27628 148.52 7.42927 149.067 7.73526C149.62 8.03474 150.021 8.49373 150.268 9.11222H150.356C150.708 8.49373 151.189 8.03474 151.801 7.73526C152.413 7.42927 153.084 7.27628 153.813 7.27628Z" fill="white"/>
<path d="M164.829 7.27628C165.74 7.27628 166.521 7.4781 167.172 7.88175C167.823 8.28539 168.321 8.8518 168.667 9.58097C169.012 10.3036 169.184 11.15 169.184 12.12V13.1259H161.792C161.811 14.3824 162.124 15.3394 162.729 15.997C163.335 16.6545 164.187 16.9833 165.288 16.9833C165.965 16.9833 166.564 16.9215 167.085 16.7978C167.605 16.6741 168.146 16.4918 168.706 16.2509V17.6767C168.165 17.9176 167.628 18.0933 167.094 18.204C166.567 18.3147 165.942 18.37 165.219 18.37C164.191 18.37 163.292 18.1617 162.524 17.745C161.762 17.3219 161.17 16.7034 160.747 15.8896C160.323 15.0758 160.112 14.0797 160.112 12.9013C160.112 11.7489 160.304 10.7528 160.688 9.913C161.079 9.06664 161.626 8.4156 162.329 7.95987C163.038 7.50414 163.872 7.27628 164.829 7.27628ZM164.809 8.6044C163.943 8.6044 163.253 8.88761 162.739 9.45401C162.224 10.0204 161.919 10.8114 161.821 11.8271H167.485C167.478 11.189 167.377 10.6291 167.182 10.1474C166.993 9.65909 166.704 9.28149 166.313 9.01456C165.922 8.74112 165.421 8.6044 164.809 8.6044Z" fill="white"/>
<path d="M177.006 7.27628C178.276 7.27628 179.236 7.58878 179.887 8.21378C180.538 8.83227 180.864 9.82836 180.864 11.2021V18.1747H179.262V11.3095C179.262 10.4176 179.057 9.75024 178.647 9.30753C178.243 8.86482 177.622 8.64347 176.782 8.64347C175.597 8.64347 174.764 8.97875 174.282 9.64933C173.8 10.3199 173.559 11.2932 173.559 12.5692V18.1747H171.938V7.47159H173.247L173.491 9.01456H173.579C173.807 8.63696 174.096 8.3212 174.448 8.0673C174.799 7.80688 175.193 7.61157 175.629 7.48136C176.066 7.34464 176.525 7.27628 177.006 7.27628Z" fill="white"/>
<path d="M185.825 7.47159V18.1747H184.204V7.47159H185.825ZM185.034 3.46769C185.301 3.46769 185.529 3.55558 185.717 3.73136C185.913 3.90063 186.01 4.16756 186.01 4.53214C186.01 4.89021 185.913 5.15714 185.717 5.33292C185.529 5.5087 185.301 5.59659 185.034 5.59659C184.754 5.59659 184.519 5.5087 184.331 5.33292C184.148 5.15714 184.057 4.89021 184.057 4.53214C184.057 4.16756 184.148 3.90063 184.331 3.73136C184.519 3.55558 184.754 3.46769 185.034 3.46769Z" fill="white"/>
<path d="M192.719 17.0419C192.986 17.0419 193.26 17.0191 193.54 16.9735C193.82 16.928 194.047 16.8726 194.223 16.8075V18.0673C194.034 18.1519 193.771 18.2235 193.432 18.2821C193.1 18.3407 192.775 18.37 192.456 18.37C191.889 18.37 191.375 18.2724 190.913 18.0771C190.45 17.8752 190.079 17.5367 189.799 17.0614C189.526 16.5862 189.389 15.9286 189.389 15.0888V8.74112H187.866V7.95011L189.399 7.31534L190.044 4.99112H191.02V7.47159H194.155V8.74112H191.02V15.04C191.02 15.7105 191.173 16.2118 191.479 16.5439C191.792 16.8759 192.205 17.0419 192.719 17.0419Z" fill="white"/>
<path d="M194.702 7.47159H196.44L198.803 13.6825C198.94 14.0471 199.067 14.3987 199.184 14.7372C199.301 15.0692 199.405 15.3883 199.497 15.6942C199.588 16.0002 199.659 16.2965 199.711 16.5829H199.78C199.871 16.2574 200.001 15.831 200.17 15.3036C200.34 14.7698 200.522 14.2261 200.717 13.6728L202.954 7.47159H204.702L200.044 19.747C199.796 20.4045 199.506 20.9775 199.174 21.4657C198.849 21.954 198.452 22.3284 197.983 22.5888C197.514 22.8557 196.948 22.9892 196.284 22.9892C195.978 22.9892 195.708 22.9696 195.473 22.9306C195.239 22.898 195.037 22.859 194.868 22.8134V21.5146C195.011 21.5471 195.183 21.5764 195.385 21.6025C195.594 21.6285 195.808 21.6415 196.03 21.6415C196.433 21.6415 196.782 21.5634 197.075 21.4071C197.374 21.2574 197.631 21.036 197.846 20.7431C198.061 20.4501 198.247 20.1018 198.403 19.6982L198.989 18.1942L194.702 7.47159Z" fill="white"/>
<path d="M137.836 31.3759C137.836 32.2222 137.625 32.9449 137.202 33.5439C136.785 34.1363 136.199 34.5888 135.444 34.9013C134.689 35.2138 133.8 35.37 132.778 35.37C132.238 35.37 131.726 35.344 131.245 35.2919C130.763 35.2398 130.32 35.165 129.917 35.0673C129.513 34.9696 129.158 34.8492 128.852 34.706V33.1142C129.34 33.316 129.936 33.5048 130.639 33.6806C131.342 33.8498 132.078 33.9345 132.846 33.9345C133.562 33.9345 134.168 33.8401 134.663 33.6513C135.157 33.456 135.532 33.1793 135.786 32.8212C136.046 32.4566 136.176 32.0204 136.176 31.5126C136.176 31.0243 136.069 30.6174 135.854 30.2919C135.639 29.9599 135.281 29.6604 134.78 29.3935C134.285 29.12 133.608 28.8303 132.749 28.5243C132.143 28.3095 131.609 28.0751 131.147 27.8212C130.685 27.5608 130.297 27.2678 129.985 26.9423C129.672 26.6168 129.435 26.2392 129.272 25.8095C129.116 25.3798 129.038 24.8883 129.038 24.3349C129.038 23.5732 129.23 22.9221 129.614 22.3817C130.004 21.8349 130.542 21.4182 131.225 21.1317C131.915 20.8388 132.706 20.6923 133.598 20.6923C134.36 20.6923 135.063 20.7639 135.708 20.9071C136.359 21.0504 136.954 21.2424 137.495 21.4833L136.977 22.9091C136.463 22.6942 135.916 22.5152 135.336 22.372C134.764 22.2288 134.171 22.1571 133.559 22.1571C132.947 22.1571 132.43 22.2483 132.006 22.4306C131.59 22.6064 131.271 22.857 131.049 23.1825C130.828 23.5081 130.717 23.8954 130.717 24.3446C130.717 24.8459 130.821 25.2626 131.03 25.5946C131.245 25.9267 131.583 26.2229 132.045 26.4833C132.514 26.7372 133.133 27.0041 133.901 27.2841C134.741 27.5901 135.454 27.9156 136.04 28.2607C136.626 28.5992 137.071 29.0159 137.377 29.5107C137.683 29.9989 137.836 30.6207 137.836 31.3759Z" fill="white"/>
<path d="M145.542 24.2763C146.876 24.2763 147.941 24.7353 148.735 25.6532C149.529 26.5712 149.926 27.9514 149.926 29.7939C149.926 31.0113 149.744 32.0334 149.379 32.8603C149.015 33.6871 148.501 34.3121 147.836 34.7353C147.179 35.1584 146.401 35.37 145.502 35.37C144.936 35.37 144.438 35.2952 144.008 35.1454C143.579 34.9957 143.211 34.7939 142.905 34.54C142.599 34.286 142.345 34.0094 142.143 33.7099H142.026C142.045 33.9638 142.068 34.2698 142.094 34.6278C142.127 34.9859 142.143 35.2984 142.143 35.5653V39.9599H140.512V24.4716H141.85L142.065 26.0536H142.143C142.351 25.7281 142.605 25.4319 142.905 25.165C143.204 24.8915 143.569 24.6767 143.999 24.5204C144.435 24.3577 144.949 24.2763 145.542 24.2763ZM145.258 25.6435C144.516 25.6435 143.917 25.7867 143.461 26.0732C143.012 26.3596 142.683 26.7893 142.475 27.3622C142.267 27.9286 142.156 28.6415 142.143 29.5009V29.8134C142.143 30.7183 142.241 31.4833 142.436 32.1083C142.638 32.7333 142.967 33.2086 143.422 33.5341C143.885 33.8596 144.503 34.0224 145.278 34.0224C145.942 34.0224 146.495 33.8433 146.938 33.4853C147.381 33.1272 147.71 32.6291 147.924 31.9911C148.146 31.3466 148.256 30.6077 148.256 29.7743C148.256 28.5113 148.009 27.5087 147.514 26.7665C147.026 26.0178 146.274 25.6435 145.258 25.6435Z" fill="white"/>
<path d="M156.762 24.2958C158.038 24.2958 158.986 24.5823 159.604 25.1552C160.223 25.7281 160.532 26.6428 160.532 27.8993V35.1747H159.35L159.038 33.5927H158.96C158.66 33.9833 158.348 34.3121 158.022 34.579C157.696 34.8394 157.319 35.038 156.889 35.1747C156.466 35.3049 155.945 35.37 155.327 35.37C154.676 35.37 154.096 35.2561 153.588 35.0282C153.087 34.8004 152.69 34.4553 152.397 33.9931C152.111 33.5308 151.967 32.9449 151.967 32.2353C151.967 31.1676 152.391 30.3472 153.237 29.7743C154.083 29.2014 155.372 28.8889 157.104 28.8368L158.95 28.7587V28.1044C158.95 27.1799 158.751 26.5321 158.354 26.161C157.957 25.79 157.397 25.6044 156.674 25.6044C156.114 25.6044 155.581 25.6858 155.073 25.8485C154.565 26.0113 154.083 26.2034 153.627 26.4247L153.129 25.1942C153.611 24.9469 154.165 24.7353 154.79 24.5595C155.415 24.3837 156.072 24.2958 156.762 24.2958ZM158.93 29.9013L157.299 29.9696C155.965 30.0217 155.024 30.2398 154.477 30.6239C153.93 31.0081 153.657 31.5517 153.657 32.2548C153.657 32.8668 153.842 33.3192 154.213 33.6122C154.585 33.9052 155.076 34.0517 155.688 34.0517C156.639 34.0517 157.417 33.788 158.022 33.2607C158.627 32.7333 158.93 31.9423 158.93 30.8876V29.9013Z" fill="white"/>
<path d="M168.159 35.37C167.195 35.37 166.346 35.1715 165.61 34.7743C164.874 34.3772 164.301 33.7717 163.891 32.9579C163.481 32.1441 163.276 31.1187 163.276 29.8817C163.276 28.5862 163.491 27.5282 163.92 26.7079C164.357 25.8811 164.956 25.2691 165.717 24.872C166.479 24.4748 167.345 24.2763 168.315 24.2763C168.849 24.2763 169.363 24.3316 169.858 24.4423C170.359 24.5465 170.769 24.6799 171.088 24.8427L170.6 26.2001C170.275 26.0699 169.897 25.9527 169.467 25.8485C169.044 25.7444 168.647 25.6923 168.276 25.6923C167.534 25.6923 166.915 25.8518 166.42 26.1708C165.932 26.4898 165.564 26.9586 165.317 27.5771C165.076 28.1956 164.956 28.9573 164.956 29.8622C164.956 30.7281 165.073 31.467 165.307 32.079C165.548 32.691 165.903 33.1597 166.372 33.4853C166.847 33.8043 167.439 33.9638 168.149 33.9638C168.715 33.9638 169.226 33.9052 169.682 33.788C170.138 33.6643 170.551 33.5211 170.922 33.3583V34.8036C170.564 34.9859 170.164 35.1259 169.721 35.2235C169.285 35.3212 168.764 35.37 168.159 35.37Z" fill="white"/>
<path d="M177.583 24.2763C178.494 24.2763 179.275 24.4781 179.926 24.8817C180.577 25.2854 181.075 25.8518 181.42 26.581C181.766 27.3036 181.938 28.15 181.938 29.12V30.1259H174.545C174.565 31.3824 174.877 32.3394 175.483 32.997C176.088 33.6545 176.941 33.9833 178.042 33.9833C178.719 33.9833 179.318 33.9215 179.838 33.7978C180.359 33.6741 180.9 33.4918 181.46 33.2509V34.6767C180.919 34.9176 180.382 35.0933 179.848 35.204C179.321 35.3147 178.696 35.37 177.973 35.37C176.945 35.37 176.046 35.1617 175.278 34.745C174.516 34.3219 173.924 33.7034 173.501 32.8896C173.077 32.0758 172.866 31.0797 172.866 29.9013C172.866 28.7489 173.058 27.7528 173.442 26.913C173.833 26.0666 174.379 25.4156 175.083 24.9599C175.792 24.5041 176.626 24.2763 177.583 24.2763ZM177.563 25.6044C176.697 25.6044 176.007 25.8876 175.493 26.454C174.978 27.0204 174.672 27.8114 174.575 28.8271H180.239C180.232 28.189 180.131 27.6291 179.936 27.1474C179.747 26.6591 179.458 26.2815 179.067 26.0146C178.676 25.7411 178.175 25.6044 177.563 25.6044Z" fill="white"/>
<path d="M191.616 32.245C191.616 32.9286 191.443 33.5048 191.098 33.9735C190.76 34.4358 190.271 34.7841 189.633 35.0185C189.002 35.2528 188.247 35.37 187.368 35.37C186.619 35.37 185.971 35.3114 185.424 35.1942C184.877 35.0771 184.399 34.911 183.989 34.6962V33.2021C184.425 33.4169 184.946 33.6122 185.551 33.788C186.157 33.9638 186.775 34.0517 187.407 34.0517C188.331 34.0517 189.002 33.9019 189.419 33.6025C189.835 33.303 190.044 32.8961 190.044 32.3817C190.044 32.0888 189.959 31.8316 189.79 31.6103C189.627 31.3824 189.35 31.1643 188.96 30.956C188.569 30.7411 188.029 30.5067 187.338 30.2528C186.655 29.9924 186.062 29.7353 185.561 29.4814C185.066 29.2209 184.682 28.9052 184.409 28.5341C184.142 28.163 184.008 27.6812 184.008 27.0888C184.008 26.1838 184.373 25.4905 185.102 25.0087C185.838 24.5204 186.801 24.2763 187.993 24.2763C188.637 24.2763 189.239 24.3414 189.799 24.4716C190.366 24.5953 190.893 24.7646 191.381 24.9794L190.835 26.2782C190.392 26.0894 189.92 25.9299 189.419 25.7997C188.917 25.6695 188.406 25.6044 187.885 25.6044C187.137 25.6044 186.56 25.7281 186.157 25.9755C185.76 26.2229 185.561 26.5614 185.561 26.9911C185.561 27.3232 185.652 27.5966 185.835 27.8114C186.023 28.0263 186.323 28.2281 186.733 28.4169C187.143 28.6057 187.683 28.8271 188.354 29.081C189.025 29.3284 189.604 29.5855 190.092 29.8525C190.581 30.1129 190.955 30.4319 191.215 30.8095C191.482 31.1806 191.616 31.6591 191.616 32.245Z" fill="white"/>
<path d="M0 3.96307V0.447443H24.5455V3.96307H14.2543V33.1747H10.2912V3.96307H0Z" fill="#79ADF6"/>
<path d="M56.9132 16.8111C56.9132 20.2628 56.29 23.2457 55.0435 25.7599C53.7971 28.2741 52.0872 30.2131 49.9139 31.5767C47.7406 32.9403 45.2583 33.6222 42.4672 33.6222C39.676 33.6222 37.1937 32.9403 35.0204 31.5767C32.8471 30.2131 31.1373 28.2741 29.8908 25.7599C28.6444 23.2457 28.0211 20.2628 28.0211 16.8111C28.0211 13.3594 28.6444 10.3764 29.8908 7.86222C31.1373 5.34801 32.8471 3.40909 35.0204 2.04546C37.1937 0.681818 39.676 0 42.4672 0C45.2583 0 47.7406 0.681818 49.9139 2.04546C52.0872 3.40909 53.7971 5.34801 55.0435 7.86222C56.29 10.3764 56.9132 13.3594 56.9132 16.8111ZM53.0779 16.8111C53.0779 13.9773 52.6039 11.5856 51.6557 9.63601C50.7182 7.68644 49.4451 6.21094 47.8365 5.20952C46.2385 4.2081 44.4487 3.70739 42.4672 3.70739C40.4856 3.70739 38.6905 4.2081 37.0819 5.20952C35.4838 6.21094 34.2108 7.68644 33.2626 9.63601C32.3251 11.5856 31.8564 13.9773 31.8564 16.8111C31.8564 19.6449 32.3251 22.0366 33.2626 23.9862C34.2108 25.9357 35.4838 27.4112 37.0819 28.4126C38.6905 29.4141 40.4856 29.9148 42.4672 29.9148C44.4487 29.9148 46.2385 29.4141 47.8365 28.4126C49.4451 27.4112 50.7182 25.9357 51.6557 23.9862C52.6039 22.0366 53.0779 19.6449 53.0779 16.8111Z" fill="#79ADF6"/>
<path d="M85.0542 0.447443H89.0172V22.1165C89.0172 24.3537 88.4899 26.3512 87.4352 28.109C86.3912 29.8562 84.9157 31.2358 83.0087 32.2479C81.1017 33.2493 78.8645 33.75 76.2971 33.75C73.7296 33.75 71.4924 33.2493 69.5854 32.2479C67.6784 31.2358 66.1976 29.8562 65.1429 28.109C64.0989 26.3512 63.5769 24.3537 63.5769 22.1165V0.447443H67.5399V21.7969C67.5399 23.3949 67.8915 24.8171 68.5946 26.0636C69.2978 27.2994 70.2992 28.2741 71.5989 28.9879C72.9093 29.6911 74.4753 30.0426 76.2971 30.0426C78.1188 30.0426 79.6848 29.6911 80.9952 28.9879C82.3056 28.2741 83.307 27.2994 83.9995 26.0636C84.7026 24.8171 85.0542 23.3949 85.0542 21.7969V0.447443Z" fill="#79ADF6"/>
<path d="M96.9314 33.1747V0.447443H107.99C110.546 0.447443 112.645 0.884233 114.286 1.75781C115.926 2.62074 117.141 3.80859 117.929 5.32138C118.718 6.83416 119.112 8.55469 119.112 10.483C119.112 12.4112 118.718 14.1211 117.929 15.6126C117.141 17.104 115.932 18.2759 114.302 19.1282C112.672 19.9698 110.589 20.3906 108.054 20.3906H99.1047V16.8111H107.926C109.673 16.8111 111.079 16.5554 112.144 16.044C113.22 15.5327 113.998 14.8082 114.478 13.8707C114.968 12.9226 115.213 11.7933 115.213 10.483C115.213 9.17259 114.968 8.02734 114.478 7.04723C113.987 6.06712 113.204 5.31073 112.128 4.77806C111.052 4.23473 109.63 3.96307 107.862 3.96307H100.894V33.1747H96.9314ZM112.336 18.473L120.39 33.1747H115.788L107.862 18.473H112.336Z" fill="#79ADF6"/>
</svg>
