<svg xmlns="http://www.w3.org/2000/svg" width="218.934" height="36.482" viewBox="0 0 218.934 36.482">
  <g id="Group_4" data-name="Group 4" transform="translate(-26 1576.678)">
    <path id="Path_3" data-name="Path 3" d="M10.938,0,9.16-4.541H3.438L1.68,0H0L5.645-14.336h1.4L12.656,0ZM8.643-6.035l-1.66-4.424q-.322-.84-.664-2.061A18.5,18.5,0,0,1,5.7-10.459L4.023-6.035ZM30.018,0V-6.963a2.89,2.89,0,0,0-.547-1.919,2.115,2.115,0,0,0-1.7-.64,2.743,2.743,0,0,0-2.236.869,4.131,4.131,0,0,0-.723,2.676V0H23.191V-6.963a2.89,2.89,0,0,0-.547-1.919,2.128,2.128,0,0,0-1.709-.64,2.647,2.647,0,0,0-2.231.913A4.942,4.942,0,0,0,18-5.615V0H16.375V-10.7h1.318l.264,1.465h.078a3.186,3.186,0,0,1,1.294-1.221A3.953,3.953,0,0,1,21.2-10.9q2.51,0,3.281,1.816h.078a3.413,3.413,0,0,1,1.387-1.328,4.3,4.3,0,0,1,2.07-.488,3.624,3.624,0,0,1,2.72.933,4.172,4.172,0,0,1,.9,2.983V0ZM41.5.2A4.917,4.917,0,0,1,37.755-1.25a5.6,5.6,0,0,1-1.372-4.014,6.205,6.205,0,0,1,1.274-4.111A4.233,4.233,0,0,1,41.08-10.9a4.036,4.036,0,0,1,3.184,1.323,5.072,5.072,0,0,1,1.172,3.491v1.025H38.063A4.243,4.243,0,0,0,39.015-2.2a3.293,3.293,0,0,0,2.544.977,8.621,8.621,0,0,0,3.418-.723V-.5a8.579,8.579,0,0,1-1.626.532A9.138,9.138,0,0,1,41.5.2Zm-.439-9.736A2.647,2.647,0,0,0,39-8.7a3.871,3.871,0,0,0-.9,2.324h5.6a3.564,3.564,0,0,0-.684-2.349A2.406,2.406,0,0,0,41.061-9.541ZM57.523,0V-6.924a2.793,2.793,0,0,0-.6-1.953,2.427,2.427,0,0,0-1.865-.645,3.076,3.076,0,0,0-2.461.908,4.585,4.585,0,0,0-.781,3V0H50.2V-10.7h1.318l.264,1.465h.078a3.31,3.31,0,0,1,1.4-1.226,4.537,4.537,0,0,1,2-.435,4.065,4.065,0,0,1,2.91.933,3.969,3.969,0,0,1,.977,2.983V0ZM66.1,0H64.475V-10.7H66.1ZM64.338-13.6a1.077,1.077,0,0,1,.273-.815.956.956,0,0,1,.684-.259.955.955,0,0,1,.674.264,1.057,1.057,0,0,1,.283.811,1.074,1.074,0,0,1-.283.815.946.946,0,0,1-.674.269.936.936,0,0,1-.684-.269A1.1,1.1,0,0,1,64.338-13.6ZM74.99-1.143a5.3,5.3,0,0,0,.83-.063,5.373,5.373,0,0,0,.635-.132V-.1a2.963,2.963,0,0,1-.776.21A5.83,5.83,0,0,1,74.756.2Q71.65.2,71.65-3.076V-9.443H70.117v-.781L71.65-10.9l.684-2.285h.938v2.48h3.105v1.26H73.271v6.3A2.167,2.167,0,0,0,73.73-1.66,1.6,1.6,0,0,0,74.99-1.143Zm3.9-9.561h1.738l2.344,6.1a23.216,23.216,0,0,1,.957,3.018h.078q.127-.5.532-1.7T87.2-10.7h1.738l-4.6,12.188a6.08,6.08,0,0,1-1.6,2.563A3.4,3.4,0,0,1,80.5,4.8a6.522,6.522,0,0,1-1.465-.166V3.34a5.651,5.651,0,0,0,1.2.117,2.476,2.476,0,0,0,2.383-1.875l.6-1.523ZM10.02,13.2a3.5,3.5,0,0,1-1.367,2.939A5.928,5.928,0,0,1,4.941,17.2a9.3,9.3,0,0,1-3.906-.654v-1.6a10.284,10.284,0,0,0,1.914.586A10.07,10.07,0,0,0,5,15.74a4.138,4.138,0,0,0,2.5-.63,2.067,2.067,0,0,0,.84-1.753,2.25,2.25,0,0,0-.3-1.216,2.767,2.767,0,0,0-1-.874,13.935,13.935,0,0,0-2.124-.908A6.78,6.78,0,0,1,2.075,8.67a3.73,3.73,0,0,1-.854-2.549,3.17,3.17,0,0,1,1.24-2.627,5.154,5.154,0,0,1,3.281-.977A9.67,9.67,0,0,1,9.658,3.3L9.141,4.744A8.85,8.85,0,0,0,5.7,4a3.327,3.327,0,0,0-2.061.566A1.867,1.867,0,0,0,2.9,6.141a2.41,2.41,0,0,0,.273,1.216,2.574,2.574,0,0,0,.923.869A11.466,11.466,0,0,0,6.084,9.1a7.868,7.868,0,0,1,3.091,1.719A3.38,3.38,0,0,1,10.02,13.2ZM19.676,17.2a4.632,4.632,0,0,1-1.909-.386,3.59,3.59,0,0,1-1.45-1.187H16.2a14.356,14.356,0,0,1,.117,1.777v4.4H14.7V6.3h1.318l.225,1.465h.078a3.765,3.765,0,0,1,1.455-1.27,4.423,4.423,0,0,1,1.9-.391,3.956,3.956,0,0,1,3.286,1.455,6.406,6.406,0,0,1,1.157,4.082,6.369,6.369,0,0,1-1.177,4.1A3.963,3.963,0,0,1,19.676,17.2Zm-.234-9.717a2.873,2.873,0,0,0-2.373.908,4.673,4.673,0,0,0-.752,2.891v.361a5.356,5.356,0,0,0,.752,3.228,2.86,2.86,0,0,0,2.412.972,2.508,2.508,0,0,0,2.173-1.123,5.325,5.325,0,0,0,.786-3.1,5.126,5.126,0,0,0-.786-3.071A2.586,2.586,0,0,0,19.441,7.479ZM35.533,17l-.322-1.523h-.078a4.5,4.5,0,0,1-1.6,1.362,4.867,4.867,0,0,1-1.987.356,3.575,3.575,0,0,1-2.5-.82,2.992,2.992,0,0,1-.9-2.334q0-3.242,5.186-3.4l1.816-.059V9.92a2.714,2.714,0,0,0-.542-1.86,2.229,2.229,0,0,0-1.733-.6,7.063,7.063,0,0,0-3.027.82l-.5-1.24a7.618,7.618,0,0,1,1.733-.674,7.507,7.507,0,0,1,1.89-.244,4.077,4.077,0,0,1,2.837.85A3.546,3.546,0,0,1,36.734,9.7V17Zm-3.662-1.143a3.29,3.29,0,0,0,2.378-.83,3.071,3.071,0,0,0,.864-2.324v-.967l-1.621.068a5.9,5.9,0,0,0-2.788.6,1.811,1.811,0,0,0-.854,1.655,1.67,1.67,0,0,0,.532,1.338A2.209,2.209,0,0,0,31.871,15.857ZM46.352,17.2a4.568,4.568,0,0,1-3.6-1.431,5.883,5.883,0,0,1-1.274-4.048,6.067,6.067,0,0,1,1.294-4.15A4.659,4.659,0,0,1,46.459,6.1,7.316,7.316,0,0,1,48,6.268a5.083,5.083,0,0,1,1.211.391l-.5,1.377a7.623,7.623,0,0,0-1.172-.356,5.232,5.232,0,0,0-1.123-.142q-3.262,0-3.262,4.16a4.954,4.954,0,0,0,.8,3.027,2.769,2.769,0,0,0,2.358,1.055,7.211,7.211,0,0,0,2.744-.576v1.436A5.849,5.849,0,0,1,46.352,17.2Zm11.766,0a4.917,4.917,0,0,1-3.745-1.445A5.6,5.6,0,0,1,53,11.736a6.205,6.205,0,0,1,1.274-4.111A4.233,4.233,0,0,1,57.7,6.1a4.036,4.036,0,0,1,3.184,1.323,5.072,5.072,0,0,1,1.172,3.491v1.025H54.68a4.243,4.243,0,0,0,.952,2.861,3.293,3.293,0,0,0,2.544.977,8.621,8.621,0,0,0,3.418-.723V16.5a8.579,8.579,0,0,1-1.626.532A9.138,9.138,0,0,1,58.117,17.2Zm-.439-9.736a2.647,2.647,0,0,0-2.056.84,3.871,3.871,0,0,0-.9,2.324h5.6a3.564,3.564,0,0,0-.684-2.349A2.406,2.406,0,0,0,57.678,7.459ZM73.721,14.08a2.681,2.681,0,0,1-1.113,2.3,5.233,5.233,0,0,1-3.125.811,6.8,6.8,0,0,1-3.32-.674v-1.5a8.029,8.029,0,0,0,1.655.615,6.912,6.912,0,0,0,1.7.225,3.864,3.864,0,0,0,1.953-.405,1.4,1.4,0,0,0,.142-2.3A8.525,8.525,0,0,0,69.5,12.1a11.465,11.465,0,0,1-2.124-.972,2.9,2.9,0,0,1-.937-.942,2.458,2.458,0,0,1-.308-1.26A2.4,2.4,0,0,1,67.2,6.858a4.96,4.96,0,0,1,2.92-.757,8.544,8.544,0,0,1,3.379.7L72.92,8.123A7.756,7.756,0,0,0,70,7.459a3.359,3.359,0,0,0-1.738.361,1.117,1.117,0,0,0-.586,1,1.213,1.213,0,0,0,.22.732,2.168,2.168,0,0,0,.708.576,15.822,15.822,0,0,0,1.875.791,7,7,0,0,1,2.573,1.4A2.463,2.463,0,0,1,73.721,14.08Z" transform="translate(156 -1562)" fill="#fff"/>
    <path id="Path_2" data-name="Path 2" d="M16.92,0V-28.08H29.655V-31.5H0v3.42H12.735V0ZM45.585-31.86c-11.52,0-15.705,4.05-15.705,16.11S34.065.36,45.585.36c11.61,0,15.7-4.05,15.7-16.11S57.195-31.86,45.585-31.86ZM34.245-15.75c0-9.5,2.385-12.69,11.34-12.69s11.34,3.195,11.34,12.69c0,9.54-2.385,12.69-11.34,12.69S34.245-6.21,34.245-15.75ZM79.11-3.06c-6.3,0-8.685-2.115-8.685-7.965V-31.5H66.24v20.88C66.24-2.3,71.235.36,79.11.36S91.98-2.3,91.98-10.62V-31.5H87.8v20.475C87.8-5.175,85.41-3.06,79.11-3.06ZM97.83,0h4.185V-25.92c0-1.71.81-2.16,2.25-2.16H115.47c4.23,0,4.86,2.2,4.86,6.12,0,3.825-.36,6.615-4.185,6.615H108.45c-1.215,0-1.89.63-1.89,1.575v.72a2.965,2.965,0,0,0,1.17,1.98L119.79,0h5.58L112.455-11.7v-.225h5.085c5.445,0,7.155-4,7.155-10.035,0-5.85-1.845-9.54-7.65-9.54h-14.58c-2.97,0-4.635,1.4-4.635,4.77Z" transform="translate(26 -1544)" fill="#79adf6"/>
  </g>
</svg>
